<svg width="452" height="152" viewBox="0 0 452 152" fill="none"
    xmlns="http://www.w3.org/2000/svg">
    <path d="M221.648 150.22V37.5549H238.449V150.22H221.648ZM221.648 17.048V0H238.449V17.048H221.648Z" fill="#1B47F7"/>
    <path d="M175.196 39.5334V7.41406H191.997V39.5334H209.045V54.6048H191.997V126.009C191.997 127.985 192.738 129.715 194.221 131.197C195.703 132.68 197.433 133.421 199.409 133.421H209.045V150.222H193.974C188.868 150.222 184.42 148.41 180.632 144.786C177.008 140.998 175.196 136.55 175.196 131.444V54.6048H160.125V39.5334H175.196Z" fill="#1B47F7"/>
    <path d="M61.7578 120.08C61.7578 110.526 66.1228 102.62 74.8526 96.3607C82.7589 90.7604 92.4771 87.4661 104.007 86.4779C112.078 85.819 118.173 84.5836 122.29 82.7718C128.055 80.4658 130.938 76.6773 130.938 71.4065C130.938 65.6415 128.714 60.7824 124.267 56.8292C119.82 52.8761 114.549 50.8995 108.454 50.8995C102.031 50.8995 96.4302 52.7937 91.6535 56.5822C86.7121 60.5353 84.2414 65.4767 84.2414 71.4065V75.1126H67.1934V67.7004C67.1934 58.147 71.476 50.323 80.0411 44.2286C87.9474 38.6283 97.4185 35.8281 108.454 35.8281C118.996 35.8281 128.138 38.7106 135.879 44.4756C143.95 50.5701 147.986 58.3117 147.986 67.7004V124.033C147.986 127.162 149.139 129.798 151.445 131.939C153.586 134.08 156.222 135.151 159.351 135.151V150.222H152.68C148.233 150.222 144.197 149.069 140.574 146.763C136.95 144.293 134.397 141.081 132.915 137.128C129.456 142.234 124.596 146.022 118.337 148.493C112.572 150.799 106.231 151.952 99.3127 151.952C87.9474 151.952 78.8881 149.069 72.1348 143.304C65.2168 137.539 61.7578 129.798 61.7578 120.08ZM78.5587 120.08C78.5587 124.856 80.7 128.81 84.9826 131.939C88.9357 134.739 93.7124 136.139 99.3127 136.139C107.878 136.139 115.208 133.586 121.302 128.48C127.726 123.374 130.938 116.868 130.938 108.961V93.89C126.326 97.6784 117.925 100.067 105.737 101.055L101.042 101.302C94.9478 101.796 89.7593 103.691 85.4767 106.985C80.8647 110.444 78.5587 114.809 78.5587 120.08Z" fill="#1B47F7"/>
    <path d="M0.5 150.219V39.5313H17.3009V59.0499C19.7716 52.2966 24.2189 47.0258 30.6428 43.2373C36.7372 39.4489 43.5729 37.5547 51.1497 37.5547H58.5619V54.6026H51.1497C41.5963 54.6026 33.5253 58.3911 26.9367 65.968C20.5128 73.2154 17.3009 81.9453 17.3009 92.1576V150.219H0.5Z" fill="#1B47F7"/>
    <path fill-rule="evenodd" clip-rule="evenodd" d="M254 93.9492C254 76.3435 258.633 62.2755 267.898 51.745C277.163 41.2145 289.489 35.9492 304.876 35.9492C305.257 35.9492 305.637 35.9525 306.015 35.9589L306 35.9492H452V151.949H306L306.008 151.94C305.632 151.946 305.255 151.949 304.876 151.949C289.489 151.949 277.163 146.684 267.898 136.153C258.633 125.623 254 111.555 254 93.9492ZM270.876 93.9492C270.876 106.948 273.937 117.396 280.058 125.294C286.346 133.192 294.618 137.141 304.876 137.141C315.134 137.141 323.406 133.192 329.693 125.294C335.815 117.396 338.876 106.948 338.876 93.9492C338.876 80.9506 335.815 70.5847 329.693 62.8513C323.406 54.9535 315.134 51.0045 304.876 51.0045C294.618 51.0045 286.346 54.9535 280.058 62.8513C273.937 70.5847 270.876 80.9506 270.876 93.9492ZM419.091 50.793H401.281V68.6025H419.091V86.412V104.222V122.031V139.841H436.9V122.031V104.222V86.412V68.6025V50.793H419.091Z" fill="#1B47F7"/>
</svg>
