<svg width="693" height="124" viewBox="0 0 693 124" fill="none" xmlns="http://www.w3.org/2000/svg">
<path d="M179.735 122.442V30.8741H193.39V122.442H179.735ZM179.735 14.2072V0.351562H193.39V14.2072H179.735Z" fill="#1B47F7"/>
<path d="M141.982 32.4798V6.375H155.636V32.4798H169.492V44.729H155.636V102.762C155.636 104.368 156.239 105.774 157.444 106.979C158.649 108.184 160.054 108.786 161.661 108.786H169.492V122.441H157.243C153.093 122.441 149.478 120.968 146.399 118.023C143.454 114.944 141.982 111.33 141.982 107.18V44.729H129.732V32.4798H141.982Z" fill="#1B47F7"/>
<path d="M49.7856 97.9437C49.7856 90.1792 53.3332 83.7534 60.4284 78.6663C66.8542 74.1147 74.7526 71.4372 84.1235 70.634C90.6832 70.0985 95.6364 69.0945 98.9832 67.6219C103.669 65.7477 106.011 62.6687 106.011 58.3848C106.011 53.6994 104.204 49.7502 100.59 46.5373C96.9751 43.3244 92.6912 41.7179 87.738 41.7179C82.5171 41.7179 77.9655 43.2574 74.0832 46.3365C70.0671 49.5494 68.059 53.5655 68.059 58.3848V61.3969H54.2034V55.3728C54.2034 47.6082 57.684 41.2494 64.6453 36.2962C71.0711 31.7446 78.7687 29.4688 87.738 29.4688C96.3058 29.4688 103.736 31.8115 110.028 36.497C116.587 41.4502 119.867 47.7421 119.867 55.3728V101.157C119.867 103.7 120.804 105.842 122.678 107.582C124.419 109.323 126.561 110.193 129.104 110.193V122.442H123.682C120.068 122.442 116.788 121.505 113.843 119.631C110.898 117.623 108.823 115.012 107.618 111.799C104.807 115.949 100.857 119.028 95.7703 121.036C91.0848 122.911 85.9308 123.848 80.3082 123.848C71.0711 123.848 63.7082 121.505 58.2195 116.819C52.5969 112.134 49.7856 105.842 49.7856 97.9437ZM63.4405 97.9437C63.4405 101.826 65.1808 105.039 68.6614 107.582C71.8743 109.858 75.7566 110.996 80.3082 110.996C87.2695 110.996 93.2267 108.921 98.18 104.771C103.401 100.621 106.011 95.3332 106.011 88.9074V76.6582C102.263 79.7372 95.4356 81.6784 85.5292 82.4816L81.7138 82.6824C76.7606 83.084 72.5437 84.6235 69.063 87.3009C65.3147 90.1122 63.4405 93.6598 63.4405 97.9437Z" fill="#1B47F7"/>
<path d="M0 122.441V32.4795H13.6548V48.3432C15.6629 42.8545 19.2774 38.5706 24.4984 35.4916C29.4516 32.4126 35.0072 30.873 41.1653 30.873H47.1895V44.7287H41.1653C33.4008 44.7287 26.8411 47.8077 21.4863 53.9658C16.2653 59.8561 13.6548 66.9512 13.6548 75.2512V122.441H0Z" fill="#1B47F7"/>
<path fill-rule="evenodd" clip-rule="evenodd" d="M206.031 76.7075C206.031 62.3986 209.796 50.9649 217.326 42.4063C224.856 33.8477 234.874 29.5684 247.38 29.5684C247.69 29.5684 247.999 29.571 248.306 29.5763L248.293 29.5684H366.954V123.847H248.293L248.3 123.839C247.995 123.844 247.688 123.847 247.38 123.847C234.874 123.847 224.856 119.567 217.326 111.009C209.796 102.45 206.031 91.0164 206.031 76.7075ZM219.747 76.7075C219.747 87.272 222.234 95.7638 227.21 102.183C232.319 108.602 239.043 111.811 247.38 111.811C255.717 111.811 262.44 108.602 267.55 102.183C272.526 95.7638 275.013 87.272 275.013 76.7075C275.013 66.143 272.526 57.7181 267.55 51.4329C262.44 45.014 255.717 41.8045 247.38 41.8045C239.043 41.8045 232.319 45.014 227.21 51.4329C222.234 57.7181 219.747 66.143 219.747 76.7075ZM340.207 41.6323H325.733V56.1069H340.207V70.5815V85.0561V99.5306V114.005H354.682V99.5306V85.0561V70.5815V56.1069V41.6323H340.207Z" fill="#1B47F7"/>
<path d="M637.729 99.5469V57.8635H644.055V65.2139C644.986 62.6707 646.661 60.6858 649.08 59.2591C651.375 57.8325 653.949 57.1191 656.802 57.1191H659.594V63.5391H656.802C653.205 63.5391 650.165 64.9658 647.684 67.8191C645.265 70.5484 644.055 73.8359 644.055 77.6817V99.5469H637.729Z" fill="#1B47F7"/>
<path d="M596.91 78.334C596.91 71.6969 598.523 66.3934 601.748 62.4235C604.974 58.4537 609.254 56.4688 614.588 56.4688C619.923 56.4688 624.203 58.4537 627.428 62.4235C630.654 66.3934 632.267 71.6969 632.267 78.334V80.474H603.237C603.237 84.7539 604.261 88.1655 606.308 90.7087C608.417 93.3139 611.177 94.6165 614.588 94.6165C617.566 94.6165 620.016 93.8412 621.939 92.2905C623.862 90.7397 624.947 88.6928 625.195 86.1496H631.522C631.15 90.4296 629.413 93.8412 626.312 96.3844C623.272 98.9276 619.365 100.199 614.588 100.199C609.254 100.199 604.974 98.2142 601.748 94.2444C598.523 90.2745 596.91 84.9711 596.91 78.334ZM603.237 74.7983H625.847C625.537 70.9525 624.358 67.8821 622.311 65.587C620.264 63.2919 617.69 62.1444 614.588 62.1444C611.487 62.1444 608.913 63.2919 606.866 65.587C604.757 67.8821 603.547 70.9525 603.237 74.7983Z" fill="#1B47F7"/>
<path d="M573.285 99.5469V57.8635H579.612V65.2139C580.543 62.6707 582.217 60.6858 584.636 59.2591C586.932 57.8325 589.506 57.1191 592.359 57.1191H595.15V63.5391H592.359C588.761 63.5391 585.722 64.9658 583.241 67.8191C580.822 70.5484 579.612 73.8359 579.612 77.6817V99.5469H573.285Z" fill="#1B47F7"/>
<path d="M529.156 78.334C529.156 71.6969 530.893 66.3934 534.366 62.4235C537.84 58.4537 542.461 56.4688 548.23 56.4688C553.998 56.4688 558.651 58.4537 562.186 62.4235C565.66 66.3934 567.397 71.6969 567.397 78.334C567.397 84.9711 565.66 90.2745 562.186 94.2444C558.651 98.2142 553.998 100.199 548.23 100.199C542.461 100.199 537.84 98.2142 534.366 94.2444C530.893 90.2745 529.156 84.9711 529.156 78.334ZM535.483 78.334C535.483 83.2342 536.63 87.1731 538.925 90.1505C541.282 93.1279 544.384 94.6165 548.23 94.6165C552.075 94.6165 555.177 93.1279 557.534 90.1505C559.829 87.1731 560.977 83.2342 560.977 78.334C560.977 73.4337 559.829 69.5258 557.534 66.6105C555.177 63.6331 552.075 62.1444 548.23 62.1444C544.384 62.1444 541.282 63.6331 538.925 66.6105C536.63 69.5258 535.483 73.4337 535.483 78.334Z" fill="#1B47F7"/>
<path d="M516.961 99.547V42.9766H523.288V99.547H516.961Z" fill="#1B47F7"/>
<path d="M475.962 113.69V57.8635H482.289V63.8183C483.467 61.7713 485.08 60.1586 487.127 58.98C489.112 57.7394 491.283 57.1191 493.64 57.1191C498.789 57.1191 503.069 59.2902 506.48 63.6322C509.706 67.7261 511.318 72.6264 511.318 78.333C511.318 84.0397 509.706 88.94 506.48 93.0339C503.069 97.3759 498.789 99.5469 493.64 99.5469C491.283 99.5469 489.112 98.9266 487.127 97.6861C485.08 96.5075 483.467 94.8948 482.289 92.8478V113.69H475.962ZM482.289 78.333C482.289 82.489 483.25 86.0556 485.173 89.033C487.344 92.2585 490.167 93.8713 493.64 93.8713C497.114 93.8713 499.905 92.2585 502.014 89.033C503.937 86.0556 504.898 82.489 504.898 78.333C504.898 74.1771 503.937 70.6104 502.014 67.633C499.905 64.4075 497.114 62.7948 493.64 62.7948C490.167 62.7948 487.344 64.4075 485.173 67.633C483.25 70.6104 482.289 74.1771 482.289 78.333Z" fill="#1B47F7"/>
<path d="M436.448 99.5467L450.591 78.3328L436.448 57.8633H443.52L454.033 72.6572L464.733 57.8633H471.805L457.662 78.3328L471.805 99.5467H464.733L454.033 84.0085L443.52 99.5467H436.448Z" fill="#1B47F7"/>
<path d="M399.631 78.334C399.631 71.6969 401.244 66.3934 404.469 62.4235C407.695 58.4537 411.975 56.4688 417.309 56.4688C422.644 56.4688 426.924 58.4537 430.149 62.4235C433.375 66.3934 434.987 71.6969 434.987 78.334V80.474H405.958C405.958 84.7539 406.981 88.1655 409.028 90.7087C411.137 93.3139 413.898 94.6165 417.309 94.6165C420.286 94.6165 422.737 93.8412 424.66 92.2905C426.582 90.7397 427.668 88.6928 427.916 86.1496H434.243C433.871 90.4296 432.134 93.8412 429.033 96.3844C425.993 98.9276 422.085 100.199 417.309 100.199C411.975 100.199 407.695 98.2142 404.469 94.2444C401.244 90.2745 399.631 84.9711 399.631 78.334ZM405.958 74.7983H428.567C428.257 70.9525 427.079 67.8821 425.032 65.587C422.985 63.2919 420.411 62.1444 417.309 62.1444C414.208 62.1444 411.633 63.2919 409.587 65.587C407.478 67.8821 406.268 70.9525 405.958 74.7983Z" fill="#1B47F7"/>
<path d="M649.821 121.045H382.498V32.4559H649.821C663.193 32.4559 673.068 37.9477 679.66 46.1273C686.31 54.378 689.715 65.501 689.715 76.7505C689.715 88 686.31 99.123 679.66 107.374C673.068 115.553 663.193 121.045 649.821 121.045Z" stroke="#1B47F7" stroke-width="5.68921"/>
</svg>
