<svg width="206" height="206" viewBox="0 0 206 206" fill="none" xmlns="http://www.w3.org/2000/svg">
<circle cx="103" cy="103" r="95.3539" stroke="#1B47F7" stroke-width="15.2923"/>
<rect x="40.6519" y="40.6524" width="124.696" height="124.696" stroke="#1B47F7" stroke-width="19.1154"/>
<path d="M97.4329 65.1895H81.1083V81.514H97.4329V65.1895ZM81.1083 65.1895H64.7838V81.514H81.1083V65.1895ZM81.1083 81.514H64.7838V97.8385H81.1083V81.514ZM81.1083 97.8385H64.7838V114.163H81.1083V97.8385ZM81.1083 114.163H64.7838V130.488H81.1083V114.163ZM81.1083 130.488H64.7838V141.5H81.1083V130.488Z" fill="#1B47F7"/>
<path d="M108 65.1895H124.325V81.514H108V65.1895ZM124.325 65.1895H140.649V81.514H124.325V65.1895ZM124.325 81.514H140.649V97.8385H124.325V81.514ZM124.325 97.8385H140.649V114.163H124.325V97.8385ZM124.325 114.163H140.649V130.488H124.325V114.163ZM124.325 130.488H140.649V141.5H124.325V130.488Z" fill="#1B47F7"/>
</svg>
